<svg width="124" height="120" viewBox="0 0 124 120" fill="none" xmlns="http://www.w3.org/2000/svg">
<path d="M76.9737 45L56.4474 65L46.1842 55M102.632 50.8252C102.632 83.6665 77.1376 98.3903 66.3297 103.157L66.316 103.163C65.1794 103.664 64.6096 103.915 63.3179 104.131C62.4999 104.268 60.6632 104.268 59.8452 104.131C58.5483 103.915 57.9726 103.662 56.8268 103.157C46.019 98.3904 20.5263 83.6665 20.5263 50.8252V31.001C20.5263 25.4005 20.5263 22.5981 21.6449 20.459C22.6289 18.5774 24.1978 17.0487 26.129 16.0899C28.3244 15 31.2005 15 36.9484 15H86.2115C91.9594 15 94.8294 15 97.0248 16.0899C98.9559 17.0487 100.53 18.5774 101.514 20.459C102.632 22.596 102.632 25.395 102.632 30.9846V50.8252Z" stroke="white" stroke-width="2" stroke-linecap="round" stroke-linejoin="round"/>
</svg>
