<svg width="120" height="120" viewBox="0 0 120 120" fill="none" xmlns="http://www.w3.org/2000/svg">
<path d="M85 85C79.4772 85 75 89.4772 75 95C75 100.523 79.4772 105 85 105C90.5228 105 95 100.523 95 95C95 89.4772 90.5228 85 85 85ZM85 85H46.4697C44.1644 85 43.0097 85 42.0605 84.5898C41.2233 84.228 40.4969 83.6456 39.9677 82.9027C39.3745 82.0701 39.1359 80.9566 38.6637 78.7526L26.3574 21.3232C25.8742 19.0682 25.6293 17.9419 25.0293 17.0996C24.5001 16.3567 23.7738 15.7721 22.9366 15.4102C21.9873 15 20.8389 15 18.5327 15H15M30 30H94.3661C97.975 30 99.7776 30 100.989 30.7518C102.05 31.4103 102.827 32.4431 103.165 33.645C103.552 35.0172 103.055 36.7498 102.055 40.2173L95.1318 64.2173C94.5338 66.2905 94.2347 67.3252 93.6279 68.0944C93.0924 68.7734 92.386 69.305 91.5852 69.6313C90.6806 70 89.6056 70 87.4605 70H38.6523M40 105C34.4772 105 30 100.523 30 95C30 89.4772 34.4772 85 40 85C45.5228 85 50 89.4772 50 95C50 100.523 45.5228 105 40 105Z" stroke="white" stroke-width="2" stroke-linecap="round" stroke-linejoin="round"/>
</svg>
