<svg width="120" height="120" viewBox="0 0 120 120" fill="none" xmlns="http://www.w3.org/2000/svg">
<path d="M25 49.6143C25 73.8734 46.2224 93.9346 55.616 101.626C56.9603 102.727 57.6406 103.284 58.6435 103.566C59.4245 103.786 60.574 103.786 61.355 103.566C62.3598 103.283 63.0353 102.732 64.3848 101.627C73.7783 93.9354 94.9996 73.8756 94.9996 49.6165C94.9996 40.4359 91.3123 31.6303 84.7485 25.1386C78.1848 18.647 69.283 15 60.0004 15C50.7178 15 41.815 18.6475 35.2513 25.1392C28.6875 31.6308 25 40.4337 25 49.6143Z" stroke="white" stroke-width="2" stroke-linecap="round" stroke-linejoin="round"/>
<path d="M50 45C50 50.5228 54.4772 55 60 55C65.5229 55 70 50.5228 70 45C70 39.4772 65.5229 35 60 35C54.4772 35 50 39.4772 50 45Z" stroke="white" stroke-width="2" stroke-linecap="round" stroke-linejoin="round"/>
</svg>
