<svg width="120" height="120" viewBox="0 0 120 120" fill="none" xmlns="http://www.w3.org/2000/svg">
<path d="M85 100C85 91.7157 73.8071 85 60 85C46.1929 85 35 91.7157 35 100M105 85.0019C105 78.8509 98.8295 73.5647 90 71.25M15 85.0019C15 78.8509 21.1705 73.5647 30 71.25M90 51.1805C93.0687 48.4339 95 44.4425 95 40C95 31.7157 88.2843 25 80 25C76.1582 25 72.6538 26.4443 70 28.8195M30 51.1805C26.9313 48.4339 25 44.4425 25 40C25 31.7157 31.7157 25 40 25C43.8418 25 47.3462 26.4443 50 28.8195M60 70C51.7157 70 45 63.2843 45 55C45 46.7157 51.7157 40 60 40C68.2843 40 75 46.7157 75 55C75 63.2843 68.2843 70 60 70Z" stroke="white" stroke-width="2" stroke-linecap="round" stroke-linejoin="round"/>
</svg>
