<svg width="40" height="40" viewBox="0 0 40 40" fill="none" xmlns="http://www.w3.org/2000/svg">
<path d="M8.33334 16.5381C8.33334 24.6245 15.4075 31.3115 18.5387 33.8754C18.9868 34.2423 19.2135 34.4279 19.5479 34.5221C19.8082 34.5954 20.1913 34.5954 20.4517 34.5221C20.7866 34.4278 21.0118 34.2439 21.4616 33.8756C24.5928 31.3118 31.6665 24.6252 31.6665 16.5388C31.6665 13.4786 30.4374 10.5434 28.2495 8.37954C26.0616 6.21566 23.0943 5 20.0001 5C16.906 5 13.9384 6.21584 11.7504 8.37972C9.56251 10.5436 8.33334 13.4779 8.33334 16.5381Z" stroke="white" stroke-width="2" stroke-linecap="round" stroke-linejoin="round"/>
<path d="M16.6667 15C16.6667 16.8409 18.1591 18.3333 20 18.3333C21.841 18.3333 23.3333 16.8409 23.3333 15C23.3333 13.1591 21.841 11.6667 20 11.6667C18.1591 11.6667 16.6667 13.1591 16.6667 15Z" stroke="white" stroke-width="2" stroke-linecap="round" stroke-linejoin="round"/>
</svg>
