<svg width="50" height="50" viewBox="0 0 50 50" fill="none" xmlns="http://www.w3.org/2000/svg">
<path d="M10.4165 20.6726C10.4165 30.7806 19.2592 39.1394 23.1731 42.3442C23.7333 42.8028 24.0167 43.0349 24.4346 43.1526C24.7601 43.2442 25.239 43.2442 25.5644 43.1526C25.9831 43.0347 26.2646 42.8049 26.8268 42.3445C30.7408 39.1397 39.583 30.7815 39.583 20.6735C39.583 16.8483 38.0466 13.1793 35.3117 10.4744C32.5768 7.76957 28.8677 6.25 25 6.25C21.1323 6.25 17.4228 7.7698 14.6879 10.4746C11.953 13.1795 10.4165 16.8474 10.4165 20.6726Z" stroke="black" stroke-width="2" stroke-linecap="round" stroke-linejoin="round"/>
<path d="M20.8332 18.75C20.8332 21.0512 22.6987 22.9167 24.9998 22.9167C27.301 22.9167 29.1665 21.0512 29.1665 18.75C29.1665 16.4488 27.301 14.5833 24.9998 14.5833C22.6987 14.5833 20.8332 16.4488 20.8332 18.75Z" stroke="black" stroke-width="2" stroke-linecap="round" stroke-linejoin="round"/>
</svg>
