<svg width="32" height="32" viewBox="0 0 32 32" fill="none" xmlns="http://www.w3.org/2000/svg">
<path d="M11.8374 3.09536C11.3312 1.82984 10.1055 1 8.74251 1H4.15789C2.41384 1 1 2.4135 1 4.15755C1 18.982 13.018 31 27.8424 31C29.5865 31 31 29.586 31 27.842L31.0008 23.2566C31.0008 21.8936 30.1712 20.6681 28.9056 20.1619L24.5115 18.4049C23.3748 17.9502 22.0805 18.1548 21.1399 18.9386L20.0059 19.8845C18.6814 20.9881 16.7327 20.9004 15.5137 19.6813L12.3204 16.4851C11.1013 15.266 11.0112 13.3189 12.1149 11.9945L13.0605 10.8605C13.8444 9.91993 14.0508 8.62527 13.5961 7.48849L11.8374 3.09536Z" fill="#45BD66" stroke="white" stroke-width="2" stroke-linecap="round" stroke-linejoin="round"/>
</svg>
